<?xml version="1.0" encoding="utf-8"?>
<svg viewBox="0 0 47 52" xmlns="http://www.w3.org/2000/svg" xmlns:bx="https://boxy-svg.com">
  <g transform="matrix(0, 0, 0, 0, 0, 0)" fill="#000000" stroke="none" bx:origin="6.134 8.832">
    <path d="M8679 21513 c-67 -98 -259 -380 -428 -626 l-306 -448 -176 -977 c-113 -631 -171 -979 -165 -981 6 -3 263 -50 571 -106 490 -89 561 -99 567 -86 4 9 50 236 103 505 52 270 97 491 98 492 1 0 180 -39 397 -87 2020 -452 4534 -944 6660 -1304 278 -47 513 -87 522 -89 13 -3 19 4 23 28 3 17 10 54 15 81 26 127 163 956 159 959 -2 2 -1718 268 -3812 589 -2095 322 -3810 587 -3812 589 -1 2 65 344 147 761 82 418 147 761 144 764 -5 5 -558 113 -578 113 -4 0 -62 -80 -129 -177z"/>
    <path d="M10277 16913 c-4 -3 -7 -154 -7 -335 l0 -328 -2335 0 c-1600 0 -2335 -3 -2335 -10 0 -17 50 -111 92 -173 384 -566 1404 -980 3008 -1221 440 -66 876 -115 1495 -166 204 -16 390 -33 415 -36 275 -35 473 -223 584 -555 38 -112 76 -309 76 -390 0 -27 -112 -641 -250 -1366 -327 -1729 -785 -4149 -1060 -5607 -121 -644 -222 -1171 -224 -1174 -5 -5 128 -496 -1097 4053 -595 2211 -1085 4023 -1089 4027 -3 5 -478 -1891 -1055 -4211 -716 -2879 -1052 -4213 -1057 -4198 -19 55 -449 2056 -623 2897 -59 283 -156 738 -215 1010 -266 1209 -527 2539 -701 3560 -40 238 -41 250 -36 415 4 133 10 186 26 243 23 80 76 192 124 262 41 60 209 233 270 277 26 20 46 37 44 39 -2 2 -129 -4 -283 -13 -234 -13 -579 -16 -2159 -20 l-1880 -4 101 -102 c218 -222 354 -407 485 -662 169 -329 188 -390 509 -1680 153 -616 340 -1358 415 -1650 190 -741 542 -2150 679 -2715 316 -1308 440 -1818 611 -2515 399 -1628 620 -2617 706 -3160 54 -341 -1 -522 -252 -841 -131 -166 -380 -399 -550 -515 -33 -22 -59 -42 -59 -44 0 -3 1036 -5 2301 -5 l2302 0 -39 26 c-130 87 -246 265 -289 446 -26 108 -38 347 -25 478 16 164 53 419 110 765 95 575 138 798 399 2060 66 319 155 757 197 972 43 216 79 391 81 390 1 -2 41 -208 88 -458 113 -597 194 -1016 315 -1619 154 -767 300 -1581 346 -1925 22 -160 24 -394 5 -490 -45 -230 -191 -480 -356 -613 l-40 -32 2474 0 2474 0 -87 55 c-147 92 -253 181 -437 364 -267 268 -532 612 -767 997 l-62 101 0 311 0 311 30 118 c200 772 984 1561 2235 2248 288 158 885 439 899 424 9 -10 474 -2873 531 -3269 32 -226 20 -291 -100 -524 -135 -264 -417 -677 -719 -1051 l-64 -80 1204 -3 c662 -1 1746 -1 2408 0 l1205 3 -55 85 c-477 741 -1032 2376 -1549 4564 -116 492 -281 1253 -274 1260 2 2 405 165 896 361 l891 356 -9 32 c-4 18 -94 392 -199 832 -105 440 -194 807 -198 816 -6 13 -149 -29 -972 -287 -531 -167 -976 -305 -989 -306 -23 -3 -26 7 -112 332 -793 2990 -1413 5448 -1494 5919 -15 86 -15 103 0 202 135 921 884 1589 2130 1898 363 90 796 152 1180 169 l160 7 0 335 0 335 -4196 3 c-2308 1 -4199 -1 -4202 -5z m3553 -8297 c325 -891 587 -1622 583 -1626 -4 -4 -73 -37 -153 -73 -776 -349 -1459 -746 -1817 -1056 -46 -39 -83 -66 -83 -59 0 10 813 4150 861 4386 6 30 12 52 14 50 2 -2 270 -732 595 -1622z"/>
  </g>
  <g transform="matrix(0.002336, 0, 0, -0.002336, -0.01168, 50.667843)" fill="#000000" stroke="none">
    <path d="M8679 21513 c-67 -98 -259 -380 -428 -626 l-306 -448 -176 -977 c-113 -631 -171 -979 -165 -981 6 -3 263 -50 571 -106 490 -89 561 -99 567 -86 4 9 50 236 103 505 52 270 97 491 98 492 1 0 180 -39 397 -87 2020 -452 4534 -944 6660 -1304 278 -47 513 -87 522 -89 13 -3 19 4 23 28 3 17 10 54 15 81 26 127 163 956 159 959 -2 2 -1718 268 -3812 589 -2095 322 -3810 587 -3812 589 -1 2 65 344 147 761 82 418 147 761 144 764 -5 5 -558 113 -578 113 -4 0 -62 -80 -129 -177z"/>
    <path d="M10277 16913 c-4 -3 -7 -154 -7 -335 l0 -328 -2335 0 c-1600 0 -2335 -3 -2335 -10 0 -17 50 -111 92 -173 384 -566 1404 -980 3008 -1221 440 -66 876 -115 1495 -166 204 -16 390 -33 415 -36 275 -35 473 -223 584 -555 38 -112 76 -309 76 -390 0 -27 -112 -641 -250 -1366 -327 -1729 -785 -4149 -1060 -5607 -121 -644 -222 -1171 -224 -1174 -5 -5 128 -496 -1097 4053 -595 2211 -1085 4023 -1089 4027 -3 5 -478 -1891 -1055 -4211 -716 -2879 -1052 -4213 -1057 -4198 -19 55 -449 2056 -623 2897 -59 283 -156 738 -215 1010 -266 1209 -527 2539 -701 3560 -40 238 -41 250 -36 415 4 133 10 186 26 243 23 80 76 192 124 262 41 60 209 233 270 277 26 20 46 37 44 39 -2 2 -129 -4 -283 -13 -234 -13 -579 -16 -2159 -20 l-1880 -4 101 -102 c218 -222 354 -407 485 -662 169 -329 188 -390 509 -1680 153 -616 340 -1358 415 -1650 190 -741 542 -2150 679 -2715 316 -1308 440 -1818 611 -2515 399 -1628 620 -2617 706 -3160 54 -341 -1 -522 -252 -841 -131 -166 -380 -399 -550 -515 -33 -22 -59 -42 -59 -44 0 -3 1036 -5 2301 -5 l2302 0 -39 26 c-130 87 -246 265 -289 446 -26 108 -38 347 -25 478 16 164 53 419 110 765 95 575 138 798 399 2060 66 319 155 757 197 972 43 216 79 391 81 390 1 -2 41 -208 88 -458 113 -597 194 -1016 315 -1619 154 -767 300 -1581 346 -1925 22 -160 24 -394 5 -490 -45 -230 -191 -480 -356 -613 l-40 -32 2474 0 2474 0 -87 55 c-147 92 -253 181 -437 364 -267 268 -532 612 -767 997 l-62 101 0 311 0 311 30 118 c200 772 984 1561 2235 2248 288 158 885 439 899 424 9 -10 474 -2873 531 -3269 32 -226 20 -291 -100 -524 -135 -264 -417 -677 -719 -1051 l-64 -80 1204 -3 c662 -1 1746 -1 2408 0 l1205 3 -55 85 c-477 741 -1032 2376 -1549 4564 -116 492 -281 1253 -274 1260 2 2 405 165 896 361 l891 356 -9 32 c-4 18 -94 392 -199 832 -105 440 -194 807 -198 816 -6 13 -149 -29 -972 -287 -531 -167 -976 -305 -989 -306 -23 -3 -26 7 -112 332 -793 2990 -1413 5448 -1494 5919 -15 86 -15 103 0 202 135 921 884 1589 2130 1898 363 90 796 152 1180 169 l160 7 0 335 0 335 -4196 3 c-2308 1 -4199 -1 -4202 -5z m3553 -8297 c325 -891 587 -1622 583 -1626 -4 -4 -73 -37 -153 -73 -776 -349 -1459 -746 -1817 -1056 -46 -39 -83 -66 -83 -59 0 10 813 4150 861 4386 6 30 12 52 14 50 2 -2 270 -732 595 -1622z"/>
  </g>
</svg>